<svg id="visual" viewBox="0 0 900 600" width="900" height="600" xmlns="http://www.w3.org/2000/svg" xmlns:xlink="http://www.w3.org/1999/xlink" version="1.1"><path d="M0 431L21.5 421.7C43 412.3 86 393.7 128.8 391.3C171.7 389 214.3 403 257.2 400.3C300 397.7 343 378.3 385.8 370C428.7 361.7 471.3 364.3 514.2 378.2C557 392 600 417 642.8 425.8C685.7 434.7 728.3 427.3 771.2 417.2C814 407 857 394 878.5 387.5L900 381L900 601L878.5 601C857 601 814 601 771.2 601C728.3 601 685.7 601 642.8 601C600 601 557 601 514.2 601C471.3 601 428.7 601 385.8 601C343 601 300 601 257.2 601C214.3 601 171.7 601 128.8 601C86 601 43 601 21.5 601L0 601Z" fill="#f38aa6"></path><path d="M0 432L21.5 435.5C43 439 86 446 128.8 453.5C171.7 461 214.3 469 257.2 464.3C300 459.7 343 442.3 385.8 442.7C428.7 443 471.3 461 514.2 457.7C557 454.3 600 429.7 642.8 423C685.7 416.3 728.3 427.7 771.2 439C814 450.3 857 461.7 878.5 467.3L900 473L900 601L878.5 601C857 601 814 601 771.2 601C728.3 601 685.7 601 642.8 601C600 601 557 601 514.2 601C471.3 601 428.7 601 385.8 601C343 601 300 601 257.2 601C214.3 601 171.7 601 128.8 601C86 601 43 601 21.5 601L0 601Z" fill="#ed708c"></path><path d="M0 502L21.5 497.2C43 492.3 86 482.7 128.8 482C171.7 481.3 214.3 489.7 257.2 494.7C300 499.7 343 501.3 385.8 497.8C428.7 494.3 471.3 485.7 514.2 486.2C557 486.7 600 496.3 642.8 493C685.7 489.7 728.3 473.3 771.2 470.2C814 467 857 477 878.5 482L900 487L900 601L878.5 601C857 601 814 601 771.2 601C728.3 601 685.7 601 642.8 601C600 601 557 601 514.2 601C471.3 601 428.7 601 385.8 601C343 601 300 601 257.2 601C214.3 601 171.7 601 128.8 601C86 601 43 601 21.5 601L0 601Z" fill="#e55571"></path><path d="M0 500L21.5 499.3C43 498.7 86 497.3 128.8 504.3C171.7 511.3 214.3 526.7 257.2 530C300 533.3 343 524.7 385.8 522C428.7 519.3 471.3 522.7 514.2 518.3C557 514 600 502 642.8 498.7C685.7 495.3 728.3 500.7 771.2 501.2C814 501.7 857 497.3 878.5 495.2L900 493L900 601L878.5 601C857 601 814 601 771.2 601C728.3 601 685.7 601 642.8 601C600 601 557 601 514.2 601C471.3 601 428.7 601 385.8 601C343 601 300 601 257.2 601C214.3 601 171.7 601 128.8 601C86 601 43 601 21.5 601L0 601Z" fill="#db3755"></path><path d="M0 524L21.5 528.5C43 533 86 542 128.8 545.8C171.7 549.7 214.3 548.3 257.2 548.2C300 548 343 549 385.8 551.7C428.7 554.3 471.3 558.7 514.2 557.3C557 556 600 549 642.8 546C685.7 543 728.3 544 771.2 546.8C814 549.7 857 554.3 878.5 556.7L900 559L900 601L878.5 601C857 601 814 601 771.2 601C728.3 601 685.7 601 642.8 601C600 601 557 601 514.2 601C471.3 601 428.7 601 385.8 601C343 601 300 601 257.2 601C214.3 601 171.7 601 128.8 601C86 601 43 601 21.5 601L0 601Z" fill="#cf0138"></path></svg>